<svg xmlns="http://www.w3.org/2000/svg" viewBox="0 0 100 100">
<!-- SVG created with Arrow, by QuiverAI (https://quiver.ai) -->
  <style type="text/css">.cls-0 {fill:url(#SVGID_1_);}
.cls-1 {fill:#262626;}</style>
  <radialGradient id="SVGID_1_" cx="49.12" cy="98.52" r="98.63" gradientUnits="userSpaceOnUse">
    <stop stop-color="#F1F1F1" offset="0"/>
    <stop stop-color="#979797" offset="1"/>
  </radialGradient>
  <path class="cls-0" d="m76.5 0h-53.2c-12.9 0-23.3 10.5-23.3 23.4v53.1c0 13.5 9.3 23.5 23.3 23.5h53.2c14.1 0 23.5-10 23.5-23.4v-53.2c0-12.9-10.5-23.4-23.5-23.4z"/>
  <path class="cls-1" d="m23.9 41.4c-1.7 0-3.4 1.4-3.4 3.1v11c-0.2 1.8 1.3 3.2 3.1 3.2s3.5-1.3 3.5-3.1v-10.9c0-1.8-1.5-3.3-3.2-3.3z"/>
  <path class="cls-1" d="m37.1 32.2c-1.7 0-3.3 1.4-3.3 3.3v28.1c-0.1 1.8 1.3 3.6 3.2 3.6s3.5-1.4 3.5-3.3v-28c0.2-1.9-1.5-3.7-3.4-3.7z"/>
  <path class="cls-1" d="m49.9 19.6c-1.7 0-3.2 1.5-3.2 3.2v54.4c0 1.8 1.5 3.2 3.3 3.2 1.7 0 3.1-1.4 3.1-3v-54.7c-0.1-1.7-1.5-3.1-3.2-3.1z"/>
  <path class="cls-1" d="m62.9 36.9c-1.7 0-3.2 1.5-3.2 3.2v19.6c0 1.7 1.5 3.1 3.2 3.1 1.8 0 3.3-1.4 3.3-3.1v-19.6c0-1.7-1.5-3.2-3.3-3.2z"/>
  <path class="cls-1" d="m76.2 28c-1.6 0-3.3 1.4-3.3 3v37.5c0 1.7 1.5 3.5 3.3 3.5s3.1-1.4 3.1-3.2l0.1-38c-0.1-1.6-1.5-2.8-3.2-2.8z"/>
</svg>