<svg xmlns="http://www.w3.org/2000/svg" viewBox="0 0 100 100">
<!-- Rezeis brand mark -->
  <style type="text/css">.cls-0 {fill:url(#SVGID_1_);stroke:#00C4BA;stroke-width:0.2;stroke-miterlimit:10;}</style>
  <linearGradient id="SVGID_1_" x1="4.015" x2="96.21" y1="50" y2="50" gradientUnits="userSpaceOnUse">
    <stop stop-color="#00BABA" offset=".2418"/>
    <stop stop-color="#008ECD" offset=".263"/>
    <stop stop-color="#7809D5" offset=".3023"/>
    <stop stop-color="#7809D5" offset=".5618"/>
    <stop stop-color="#EB008B" offset=".7967"/>
  </linearGradient>
  <path class="cls-0" d="m91.3 90c-0.3 0-0.7 0-0.8 0.1l-0.2-0.1-14.1-20.4c0.4-0.6 0.8-1.6 0.8-3.1 0-0.3-0.1-0.6-0.1-1.3 7-4.9 11.9-12.5 14.2-22 2.4-0.4 4.2-2.4 4.2-5.3 0-2.4-1.7-5.1-4-6-1.1-10.9-11.1-23.9-21.7-25.9-2.3-0.8-6.3-2-9.9-2.2h-45.8c-0.7-2-2.4-3.3-4.8-3.3-2.9 0-5.1 2.1-5.1 4.9 0 2.6 2.1 5.1 4.4 5.1h0.1c3.2 8.5 9.4 17.5 20.4 17.8l4 0.3h23.7c4.5 0 8.2 3.5 8.2 8.3 0 4.2-3.2 8.9-9.1 8.9-0.6 0-1.3-0.2-1.8-0.5-6.2-4.5-11.3-8.7-20.2-8.7-13.7-0.3-26.5 9.7-26.4 23.5v30c-1.9 0.6-3.3 2.4-3.3 4.4 0 2.6 2.1 5.2 4.8 5.2 2.7 0.1 4.6-1.4 5.1-4.1 8.7-2.8 18.2-7.5 19.6-20.3l0.2-2.1c0.4-2.1 2-4.7 5.3-4.7 2 0 4.5 0.8 6.1 2.6 3.4 3.7 8.2 11.5 11 15.4 4.1 5.3 8.8 9.6 17.5 9.7h12.9c0.7 2.1 2.5 3.5 4.9 3.5 2.7 0 4.8-1.8 4.8-4.7 0.1-2.7-2.1-4.9-4.9-5zm-5.6-54.5h-5.6c-0.4-3.6-1.6-7.5-3.4-10.7 0.7-0.7 0.8-1.7 0.8-2.6 0-2.4-2-5.2-4.8-5.2-1.1 0-2.2 0.2-3.7 1-2.6-1.7-7.1-3.3-11.4-3.4l-29-0.1c-5.6 0-11.3-2-15-6.4l0.1-1h44.9c12 0.2 27.3 9.5 29.3 25.1-1 0.6-1.8 1.6-2.2 3.3zm-22-8.1c-1.7-1.1-3.8-1.9-6.4-2h-23.7c-7.8 0-14.9-4.6-18.9-11.2 3.5 2.1 7.8 4 13.4 4.2h29.4c2.7 0 6.6 1.1 9.1 2.7 0 1.1 0 2.1 0.5 3.1-0.6 1-2.6 2.8-3.4 3.2zm1.3 27.4-5.4-5.2c4.9-1.4 8.9-5.1 9-11.1 0.2-2.9-0.5-6.1-2.1-8.5 0.9-1.2 2.5-2.6 3.5-3.3 0.9 0.3 1.9 0.4 3.4 0.2 1.5 1.7 2.8 5.9 2.8 10.1 0 6.1-2.8 14.1-11.2 17.8zm-50.5-5.2c3.2-4.6 9-9.1 18-9.1 4.5-0.1 9.2 1.2 13.1 3.2 5.8 3.1 10.9 6.9 15.5 12.6-1 1-7.7 1.8-8.7 1.7-5.2-4.5-11.3-10.5-21.4-10.5-4.3 0-6.9 0.5-10.8 2.1-3.8 1.5-6 4.2-8.5 7.4l-0.3-0.2c0.5-2.3 1.5-5 3.1-7.2zm4.4 39.5c2.5-4.1 3.2-9.8 3.2-12v-5.5c0.1-3.1 1.1-6 3.8-8.3 1.6-1.3 3.3-1.8 5.6-1.8 2.1 0 4.2 0.6 6.4 2.4-4.2 0.1-7.9 3.4-8.4 9.1-0.4 4.5-2.3 8.5-3.9 10.5-1.7 2.1-4.5 4.6-6.7 5.6zm39.1-5.5c-2.9-4.3-13.3-22.6-21.4-24.8-1.1-0.5-2.5-0.8-4.5-0.8-5.4 0-13.9 3.7-14 14.2v6.8c-0.2 4.8-2.6 9.1-5.9 11.6-0.3-0.3-0.7-0.3-1.2-0.5v-17.5c0.4-10.6 6.7-21.2 19.7-21.5 7.4-0.1 13.7 3.4 19.4 9 6.5 6.9 11.5 14.4 16.3 21.5 2.2 3.4 6 7.7 10.2 10.5v0.4c-9.6 0.3-14.4-2.8-18.6-8.9zm28.2 7.5c-8.1-1.1-12.8-5.6-16.3-10.6-3.7-5.5-10.2-14.9-14-19.3l0.2-0.1c8.4-1 22-5 23.9-21.3h5.4c0.3 0.8 1.3 2.2 2.5 2.7-0.8 7.5-6 15.4-13 19.5-0.8-0.6-1.9-0.6-3-0.6-2.5 0-5.7 1.8-5.7 5.1 0.3 2.8 2.7 6 6.7 5.7l13.7 18.9z"/>
</svg>
