<svg xmlns="http://www.w3.org/2000/svg" viewBox="0 0 100 100">
<!-- SVG created with Arrow, by QuiverAI (https://quiver.ai) -->
  <style type="text/css">.cls-0 {fill:#3E76E6;}
.cls-1 {fill:#558BFE;}
.cls-2 {fill:#87A0E2;}
.cls-3 {fill:#C8A6A6;}
.cls-4 {fill:#EAB084;}
.cls-5 {fill:#FFAD6C;}
.cls-6 {fill:#F4C6A7;}
.cls-7 {fill:#EBA67A;}
.cls-8 {fill:#9AB5F3;}
.cls-9 {fill:#315DC1;}
.cls-10 {fill:#376ED6;}
.cls-11 {fill:#3367CC;}
.cls-12 {fill:#F4BC91;}</style>
  <path class="cls-0" d="m15.5 10c-2.3 9.8 0.6 20.3 7.4 31l2.1 2.9c0.6 0.8-0.4 1.4-1 0.9-2.3-1.8-7.6-4.5-9.4-5.2-4.1-1.7-8.6-2.9-13.5-3.5v3.5l1 1.1c7.9 0.8 16.7 2.9 23.9 8.6 1.5 1.2 4.9 4.7 4.7 3.8l0.1 0.1c0.3 0.2 0.3-1.5-0.4-4.3-0.8-3-2.5-5.7-2.5-5.7-5.8-9.5-10.8-21.3-11.5-33.8l-0.9 0.6z"/>
  <path class="cls-1" d="m28.5 43.8c2.9 5.5 2.5 9.4 2.1 9.4-0.6 0.1-3-1.9-3.8-2.3 3.3 2.9 6.3 6.5 7.6 8.8 4.5 7.7 6.2 17.8 6.8 30l0.1 2.6 1.7 2 1 0.9c-0.1-17.4-4.7-36.7-15.5-51.4z"/>
  <path class="cls-1" d="m36.3 42c0.9 2.4 1.8 5.2 1.9 7.5-1.7-0.7-3.3-2.8-5.1-5.6 6.3 9.6 14.1 20.9 14.2 55.1l0.3 0.7h2.7c0.3-0.4 0.4-0.8 0.4-3.8 0-27.4 4.1-36.1 8.5-43.9-0.9 1.3-1.4 4.2-1.6 4.6 1.9-3.3 4.7-7.7 4.7-7.7 1.9-3.7 5.4-8.6 6.9-11.9l0.2-0.5c-0.6-3.4-0.4-6.3-0.7-5.6 0.1 1.9-6.3 10.7-9.1 15.7l-3.2 5.6c-2.8 4.9-5.3 11.1-6.9 17.4h-0.9c-2.2-9.2-6.3-18.4-12.3-27.6z"/>
  <path class="cls-1" d="m64.5 50.9-1.8 3.3c-4 6.5-8.7 18.6-8.7 40.9h0.4l2.3-2.5c1.5-15.2 3.3-25.9 8.7-34.5l0.2-4.9c0.2-1.5-0.3-2.2-1.1-2.3z"/>
  <path class="cls-1" d="m23.6 0.8-1.5 0.2-2.3 2.4c-0.2 12.5 3.3 24.5 8.7 33.6 2.9 5.1 7.9 11.6 9.6 12.5-1.3-5.3-7.5-12.6-10.1-19.2-2.9-6.9-4.4-16.6-4.3-29.4l-0.1-0.1z"/>
  <path class="cls-2" d="m21.2 1-0.4 1.1 1.2-1.1h-0.8z"/>
  <path class="cls-2" d="m19.4 3.5c-0.1 7.7 1.3 16.4 4.1 23.4-2-6-3.5-14-3.5-23.5l1.2-1.5-1.8 1.6z"/>
  <path class="cls-2" d="m1.1 36.1v3.5l0.5 0.8v-3.8c4.9 0.6 9.7 1.7 13.2 3.2l2.7 1.5-1.8-1.4c-3.4-1.7-8.5-3.2-14.6-3.8z"/>
  <path class="cls-2" d="m2.5 43.8v0.4l1.5 3.7c3.9 0.7 10.7 2.3 15 5.4 0.8 0.4 2.8 1.1 1.7-2.8-4.1-2.7-9.6-5.8-18.2-6.7z"/>
  <path class="cls-2" d="m6.7 51.5c0.1 2.3 0.9 2.5 3.2 4.3l-1.8-2.9c3.6 0.7 8.7 2.4 13.5 7.2-2.3-3-7-7-14.9-8.6z"/>
  <path class="cls-2" d="m23.6 57.3c2.2 2.3 4.2 8.7 9.2 8.6v-0.5c-4.9-0.4-5.8-4.2-7.2-6.2l-2-1.9z"/>
  <path class="cls-2" d="m47.1 95.6v3.3l0.3-0.6-0.2-2.7h-0.1z"/>
  <path class="cls-2" d="m69.1 30.1-0.3 1.4-1.9 3.8 2.4-3.9-0.2-1.3z"/>
  <path class="cls-2" d="m47.2 91 0.1-0.1c-0.1-11.1-2.7-24-6.9-33.8 3.5 8 6.8 21.1 6.8 33.9z"/>
  <path class="cls-2" d="m52.1 76.2c1.5-9.4 4.3-16.9 7.1-22-2.8 4.5-6 13-7.1 22z"/>
  <path class="cls-2" d="m14.1 43.8c4.8 1.7 10.3 4.9 14 8.5l-1.4-1.8c-2.6-2.4-7.3-5.2-12.6-6.7z"/>
  <path class="cls-2" d="m10.1 55.8c3.3 2.8 6.5 6.2 14 7.8-4-1.1-11.3-5-14-7.8z"/>
  <path class="cls-0" d="m20.4 50.4c0.9 2.3 0.5 4-1.4 3.1l4.6 3.8c2.4 1.5 3.2 7.1 9.1 8.1 0.5 0.2-0.2-1.8-2.1-5.1-1.9-3.1-6.2-7.4-10.2-9.9z"/>
  <path class="cls-9" d="m1.6 36.6v2.5c0.1 1.5 0.7 1.7 1.3 1.7 4 0.4 8.2 1.7 11.7 2.8 0.4 0.2 3 0 3 0 0.3-2.2-1.6-2.8-2.8-3.7-3.2-1.5-8.4-2.7-13.2-3.3z"/>
  <path class="cls-10" d="m3.3 44.1v0.8c0.2 0.9 0.8 2.5 1.3 2.9 5.2 1.2 11.2 2.9 14.4 5.5 2.1 1.1 2.6-1.1 1.2-2.9-4.3-2.6-8.6-4.7-16.9-6.3z"/>
  <path class="cls-11" d="m6.9 51.5c2.7 4.9 8 8.5 16.7 11.7-1.8-3.9-7.7-9.7-16.7-11.7z"/>
  <path class="cls-2" d="m23.6 41.7 1.8 2.7 0.7 1.3-0.7 0.2 0.7-0.3-0.1-0.3-2.4-3.6z"/>
  <path class="cls-2" d="m28.5 29.6c-2.3-4.4-4-12-4.7-20.9 0.3 6.8 1.6 15.5 4.7 20.9z"/>
  <path class="cls-1" d="m31.4 33.6-0.4-0.2 1.1 1.2c2.3 3.6 4.4 7.8 5.1 9l-0.9-2.4-2-3.8-2.9-3.8z"/>
  <path class="cls-2" d="m29 30c1 2.2 2.2 3.9 2.4 4l-2.4-4z"/>
  <path class="cls-2" d="m59.4 46.7-3 5.5c0.5-0.4 1.5-1.5 2-1.4l1-4.1z"/>
  <path class="cls-2" d="m59.6 46.7-1.3 5.5-0.7 4.6 4.3-7.5-2.3 3.3-1.9 3.6 1.9-9.5z"/>
  <path class="cls-2" d="m68.8 31-2.1 4.3-7.1 11.4 2.7-4.1 4.7-7.7 1.8-3.4v-0.5z"/>
  <path class="cls-2" d="m69.1 36.8-6.8 12.1 5.6-9 1.5-3-0.3-0.1z"/>
  <path class="cls-3" d="m74.9 36.1-2.5 2.5-7.6 12.3c1.9 0.5 0.8 4 0.7 6.8 3.9-5.1 9-9.1 14.9-12.4-1.9 0-1.5-2.6-0.8-3.3l-3.7 1.6c-1.1 1.2-2.1 2.2-2.9 1.2l0.1-0.4c1.4-2.2 3.2-4.5 3.7-6.5-1.4-0.2-1.2-3.2-0.8-5.5l-1.1 3.7z"/>
  <path class="cls-3" d="m74.9 0.6c-0.2 9.5-1 19.3-5.9 28.1l-0.2 0.6 0.4 7.3 3.8-6c2.9-5.4 5.3-15.4 5.5-27l-2.7-3h-0.9z"/>
  <path class="cls-3" d="m81.1 8.8c-0.1 7.1-1.7 15.1-5.2 23.6 2.6-5 6.2-11.8 6.3-23.3l-0.8-0.4-0.3 0.1z"/>
  <path class="cls-6" d="m82.4 9.1c0 10-2 18.8-6.3 26.1v2.5l3.5-6c3.1-6.3 4.6-16.1 2.8-22.6z"/>
  <path class="cls-7" d="m82.2 9.1c-0.1 10.5-3 17.7-6.2 23.3-0.6 4.4 0.1 5.3 0.1 5 4-6.2 7.8-14.8 6.3-28.3h-0.2z"/>
  <path class="cls-5" d="m97.8 36.1c-4.7 0.9-11.7 1.9-17.8 5.3-1.5 1.3-1.4 4.4 0.5 3.4 4.4-1.9 9.4-3.8 16.2-4.2 1.3-0.4 1.2-2.5 1.1-4.5z"/>
  <path class="cls-12" d="m97.9 36.1v2.8l-0.9 1.7c1.4-0.5 0.9-3 0.9-4.5z"/>
  <path class="cls-4" d="m95.8 44.1c-5.7 0.5-11.8 1.8-16.9 5.8-1.5 2.5-1 4.3 1.1 3 3.7-2 8.7-3.9 14.5-5 0.9-0.7 2.1-3 1.3-3.8z"/>
  <path class="cls-12" d="m74.3 63.3c6.6-1.6 11.5-4.6 17.5-10.6l-0.2-1-0.3-0.3c-5.8 1.8-14.9 5.8-17 11.9z"/>
  <path class="cls-3" d="m79.2 49.7c-4.8 2.5-10.5 7.1-14.2 15.7l0.4 0.3c1.5-0.3 3.1-0.7 4.5-0.8 2.8-5.3 6.7-9.3 11.8-12.9-4.3 2.4-9.2 6.6-11.6 11.6l-1 1.3-3.1 0.5c1.8-5.3 7.4-11.6 13.1-15l0.1-0.7z"/>
</svg>