<svg width="69" height="69" viewBox="0 0 69 69" fill="none" xmlns="http://www.w3.org/2000/svg">
<g clip-path="url(#clip0_57_57)">
<path fill-rule="evenodd" clip-rule="evenodd" d="M61.0421 50.5441L64.0731 52.0722L68.0055 59.686C68.0055 59.686 70.2097 63.6225 68.0553 66.2382C65.9013 68.8536 64.1233 68.7761 63.0208 68.7761C61.9187 68.7761 58.0365 68.8279 58.0365 68.8279C58.0365 68.8279 54.9808 69.1647 53.1774 66.1864C51.3736 63.2078 42.0953 42.9814 42.0953 42.9814C42.0953 42.9814 38.3856 35.1942 34.7898 35.223C31.1936 35.2525 27.3144 42.1327 25.8421 45.3234C24.3695 48.5146 17.5739 64.7337 14.5724 66.9295C11.571 69.1252 8.7678 68.5397 8.7678 68.5397L23.0522 31.0223L33.0312 19.4395L43.7187 23.8329L61.0421 50.5441Z" fill="url(#paint0_linear_57_57)"/>
<path fill-rule="evenodd" clip-rule="evenodd" d="M61.0421 50.5442L64.0731 52.0722L67.5497 58.8038C65.2771 57.7305 60.3941 55.6577 55.5707 55.1192C52.0517 54.7268 49.3554 54.7425 47.6056 54.8419C44.8215 48.9248 42.0953 42.9814 42.0953 42.9814C42.0953 42.9814 38.3856 35.1942 34.7898 35.223C31.1936 35.2525 27.3144 42.1327 25.8421 45.3234C24.3695 48.5146 17.5739 64.7337 14.5725 66.9295C11.571 69.1252 6.48829 68.9534 6.48829 68.9534L23.0522 31.0223L33.0312 19.4395L43.7187 23.8329L61.0421 50.5442Z" fill="url(#paint1_linear_57_57)"/>
<path fill-rule="evenodd" clip-rule="evenodd" d="M40.5362 12.8268L28.8065 3.76367L0.598982 60.4531C0.598982 60.4531 -1.55152 65.7589 2.297 67.9434C6.14552 70.1278 10.1939 68.4377 11.553 67.2107C16.7528 62.5168 36.108 21.4665 40.5362 12.8268Z" fill="url(#paint2_linear_57_57)"/>
<path fill-rule="evenodd" clip-rule="evenodd" d="M40.5366 12.8268L28.8067 3.76367L27.5456 6.29782C27.1497 9.97025 26.8256 15.9872 27.8687 22.1784C28.9195 28.4165 29.8487 31.7585 30.3973 33.3872C34.8867 24.34 38.826 16.1645 40.5366 12.8268Z" fill="#3D7B90"/>
<path fill-rule="evenodd" clip-rule="evenodd" d="M40.407 4.98901L39.0907 2.54383C39.0907 2.54383 37.8863 0 34.8293 0C31.7726 0 30.2781 1.69009 28.9841 3.55874C27.69 5.42707 28.203 10.1559 30.0773 14.7463C31.9511 19.3371 40.3534 36.018 40.3534 36.018C40.3534 36.018 43.9282 43.1416 48.4443 46.3514C52.96 49.5614 59.6568 52.3469 62.3506 53.7795C65.0447 55.2119 66.4304 56.7506 66.4304 56.7506L40.407 4.98901Z" fill="url(#paint3_linear_57_57)"/>
</g>
<defs>
<linearGradient id="paint0_linear_57_57" x1="58.352" y1="68.8875" x2="58.3527" y2="51.0921" gradientUnits="userSpaceOnUse">
<stop stop-color="#459AD0"/>
<stop offset="1" stop-color="#4A9ACA"/>
</linearGradient>
<linearGradient id="paint1_linear_57_57" x1="30.834" y1="21.8495" x2="30.834" y2="66.6503" gradientUnits="userSpaceOnUse">
<stop stop-color="#273087"/>
<stop offset="0.341176" stop-color="#3155B0"/>
<stop offset="1" stop-color="#356EA4"/>
</linearGradient>
<linearGradient id="paint2_linear_57_57" x1="2.40923" y1="64.6182" x2="30.9981" y2="11.8463" gradientUnits="userSpaceOnUse">
<stop stop-color="#4354F0"/>
<stop offset="1" stop-color="#4BB5CF"/>
</linearGradient>
<linearGradient id="paint3_linear_57_57" x1="35.3421" y1="1.82185" x2="54.1233" y2="52.2412" gradientUnits="userSpaceOnUse">
<stop stop-color="#31C4BA"/>
<stop offset="1" stop-color="#3CADC2"/>
</linearGradient>
<clipPath id="clip0_57_57">
<rect width="69" height="69" fill="white"/>
</clipPath>
</defs>
</svg>
