<svg xmlns="http://www.w3.org/2000/svg" viewBox="0 0 32 36" fill="currentColor"><path d="M30.611 8.507 16.935.61a2.011 2.011 0 0 0-2.005 0L1.254 8.507A2.008 2.008 0 0 0 .25 10.245v15.791c0 .713.384 1.378 1.004 1.738L14.93 35.67a2.034 2.034 0 0 0 2.008 0l13.677-7.896a2.008 2.008 0 0 0 1.004-1.738V10.245c0-.713-.385-1.378-1.004-1.738h-.004ZM16.242 17.16a.62.62 0 0 1-.62 0L2.328 9.487l13.296-7.675a.636.636 0 0 1 .62 0l13.295 7.675-13.296 7.674Zm-1.312 1.197c.097.056.201.104.312.142v15.743l-13.296-7.67a.624.624 0 0 1-.311-.537V10.684l13.295 7.674Z"/></svg>
