<svg xmlns="http://www.w3.org/2000/svg" width="250" height="250" viewBox="0 0 250 250">
<!-- SVG created with Arrow, by QuiverAI (https://quiver.ai) -->
  <path d="m249.8 0.61h-249.6v249.1h249.6v-249.1z" fill="#05171D"/>
  <path d="m193 48.22-76.88-0.01-31.27 65.01-24.78-58.07-2.29-6.94-36.66 0.01-6 7.02v135.5l7.15 7.03h23.72l5-6.58v-23.11l12.08 23.11 6.55 6.58h17.29l6.55-6.58 11.32-23.37v23.37l6.55 6.58h49.66l10.96-10.23v-23.55l6.4-0.19c30.92-0.93 59.75-21.35 59.75-61.4 0-27.74-18.18-51.5-45.1-54.2z" fill="#01101B"/>
  <path d="m120.2 60.9-38.36 87.12-39.81-87.12h-19.14v126h16.83v-77.57l36.11 77.57h9.53l34.77-78.57v78.57h14.23v-126h-14.16z" fill="#2AA8FF"/>
  <path d="m192.5 60.9h-51.46v126h20.73v-43.73h27.46c22.51 0 39.6-16.96 39.6-41.47 0-23.24-15.59-40.81-36.33-40.81zm-4.87 64.03h-24.86v-42.21h24.86c11.7 0 18.25 10.49 18.25 20.99 0 11-7.29 21.22-18.25 21.22z" fill="#FEFFFE"/>
  <path d="m149 73.71 45.44-0.15c6.1-0.02 7.16-9.53-0.05-10.45l-45.17-0.14c-6.14-0.02-5.84 10.74-0.22 10.74z" fill="#F9FCFF"/>
  <path d="m208.9 130 4.91 1.23c4.13 1.07 8.53-7.86 3.89-10.78l-4.2-1.6c-5.62-2.17-11.43 9.22-4.6 11.15z" fill="#F9FCFF"/>
  <path d="m146.7 185.3 9.19 0.1c4.03 0.05 3.93-9.64-0.92-10.15h-6.76c-4.41 0-5.02 9.6-1.51 10.05z" fill="#F9FCFF"/>
  <path d="m26.71 70.08 4.5-0.06c3.63-0.05 3.55-6.96-0.09-7.06h-4.5c-3.11 0-2.7 7.16 0.09 7.12z" fill="#36B6FF"/>
  <path d="m122.7 70.08 4.5-0.06c3.63-0.05 3.55-6.96-0.09-7.06h-4.5c-3.11 0-2.7 7.16 0.09 7.12z" fill="#36B6FF"/>
  <path d="m34.81 184.8h-5.5c-3.5 0-3.5-7 0-7h5.5c3.5 0 3.5 7 0 7z" fill="#36B6FF"/>
  <path d="m128.2 184.8h-6c-3.5 0-3.5-7 0-7h6c3.5 0 3.5 7 0 7z" fill="#36B6FF"/>
  <path d="m39.31 84.91 5.1 12.1c2.4 5.7-6.6 9.7-8.1 4.6l-1.3-7.8c-1.1-6.4 1.3-13.8 4.3-8.9z" fill="#36B6FF"/>
  <path d="m58.81 120.7 3.8 8c2.2 4.8-5.8 8.6-8 3.8l-2.2-6.2c-2.2-6.3 2.6-11.1 6.4-5.6z" fill="#36B6FF"/>
  <path d="m82.81 157.7 3.2 7c2.6 5.8-6 8.4-7.8 3.2l-1.8-5.8c-1.8-6.2 3-10 6.4-4.4z" fill="#36B6FF"/>
</svg>