<svg xmlns="http://www.w3.org/2000/svg" width="200" height="200" viewBox="0 0 200 200">
<!-- SVG created with Arrow, by QuiverAI (https://quiver.ai) -->
  <path d="m169.9 91.04c-0.52-5.8-6.82-10.38-10.65-12.54-2.86-1.49-6.43-1.59-13.83-4.37-6.23-2.35-7.65-2.72-11.35-3.32-4.02-0.64-5.05-1.06-13.95-1.32l-0.96-0.31c2.83-4.81 5.98-12.42 3.46-15.09-0.8-0.86-3.63 1.67-5.4 2.46-0.8-8.77-4.01-17.8-9.13-23.91 2.63-3.88 5.51-10.16 2.63-15.03-1.95-3.37-7.23-2.4-9.13-0.11-1.86 2.3-4.84 6.18-5.75 7.46-0.37 0.52-0.79 0.68-1.11 0.57l-14.31-19.91c-3.03-0.52-8.26-0.79-13.22 0.59-14.36 4.15-27.18 16.74-27.88 31.17-0.1 1.64-0.1 2.65 0.48 3.18l9.32 8.76c-2.68 4.71-5.25 9.47-4.4 15.96 0.75 5.69 7.48 8.64 15.25 8.22 1.76 1.85 3.87 3.41 7.75 3.57 2.93 3.92 7.11 7.75 10.94 9.55 1.37 5.03-8.59 20.62-18.26 30.49-5.9 4.67-9.5 11.85-23.28 13.81-2.63 0.11-4.39 2.94-3.59 4.21 1.43 2.3 5.11 2.3 6.59 2.62 1.42 0.37 1.63 1.69 1.26 3.88-1.42 5.46-3.94 13.54-3.68 16.7 0.21 2.2 1.68 3.32 3.73 3.37 1.53 0.64 1.74 2.49 4.68 2.65 7.05 0.21 14.72-5.64 20.05-9.56 6.89-5.08 15.79-12.53 18-16.67 3.64-6.88 2.95-9.37 1.79-12.37 2.01-3.05 7.96-8.42 9.32-24.74 1.05 1.33 0.79 13.7-1.47 22.73-1.8 7.29-7.28 17.52-10.97 21.45 0.21 4.93-5.17 12.72-5.28 16.25-0.05 1.22 3.44-1.35 7.51-5.83 1.53 6.25-1.1 27.3-6.07 34.18-1.22 0.16-1.44 1.69-0.33 2.22-3.93 2.83-7.47 4.05-11.6 4.63-0.69 1.07 2.8 1.44 8.7 1.65 4.97 0.16 10.4-0.58 14.18-2.6l1.32 2.6 7.83-0.58 3.03-4.81 1.53 4.43 8.38-0.21 1.1-2.06c4.36 1.69 11.04 3.02 16.76 0.26l1.31 3.68 4.57-0.48 18.43-74.62c4.57-1.38 8.75-4.92 8.96-9.12 3.93-4.7 7.37-14.69 6.74-23.74z" fill="#030508"/>
  <path d="m114.2 56.13c-1.37 1.01-7.66 1.81-10.23-0.05-1.58-3.64-4.21-4.81-7.14-4.44-0.8 0.11-0.69-0.58-0.05-0.79 2.88-1.01 6.03-0.11 7.89 4.37 1.47 1.23 6.33 1.49 9.11 0.48 0.95-0.37 0.85-0.95 0.79-1.96-0.74-8.53-6.41-20.04-12.23-22.71-6.49 1.91-12.21 5.68-22.97 8.4-10.6 2.94-21.2 11.52-19.62 24.37 0.37 2.44 1.12 2.28 1.86 1.7 1.16-0.85 3.22-1.38 4.23-0.8-1.81 0.53-4.69 2.18-4.96 4.62-0.16 3.31 3.1 6.47 7.82 6.04 5.13 7.45 10.46 10.77 20.23 10.66 8.11-0.37 15.21-4.29 19.83-10.29-1.81 0.21-4.12-0.11-5.38-1.12-2.52 3.47-6.21 4.85-11.75 4.96-6.29 0.05-10.96-1.75-15.69-7.54 2.88 0.42 7.45 1.11 9.87-2.98 3.04-5.14 5.14-9.01 9.32-8.64 2.63 0.26 4.05 1.01 5.47-0.11 1.21-0.95 1.74-2.48 1.48-4.12 3.69 2.53 10.99 2.64 17.72 0.06 1.11-0.53 1.38 0.1 1.17 1.22-1.32 6.4-6.23 13.33-12.91 13.28-2.31-0.05-4.22-1.48-4.86-2.6-0.47 2.89-3.15 7.75-11.79 8.6-4.36 0.42-8.67-0.64-11.3-2.6 0.64-0.32 3.06-0.79 5.02-3.24 2.68-3.47 4.05-8.45 8.91-8.55 2.16 0 3.58 1.27 5.48 0.58 1.58-0.58 2.11-1.59 2.75-3.02 1.71-3.68 7.53-2.83 11.94-3.79l-0.01 0.01z" fill="#F0CCAE"/>
  <path d="m105.9 35.01c-2.06-1.9-6.13-2.86-8.81-1.21-1.42 0.85-0.95 3.15-0.15 2.83 2.83-1.43 5.35-1.85 8.38-0.74 0.75 0.32 1.39-0.16 0.58-0.88z" fill="#030508"/>
  <path d="m81.82 42.16c-3.09-0.85-8.11 1.69-8.37 5.89-0.16 2.11 0.26 3.86 1.01 3.96 1.05 0.16 0.84-2.09 1.69-4.1 1.05-2.53 3.36-3.8 5.94-4.49 1.05-0.37 1.05-0.9-0.27-1.26z" fill="#030508"/>
  <path d="m67.71 52.6c-2.31 0-5.56 2.53-6.31 4.54-0.42 1.12 0.32 1.81 0.75 1.44 1.81-1.96 3.86-2.97 6.07-3.5 1.1-0.37 0.89-2.48-0.51-2.48z" fill="#030508"/>
  <path d="m68.23 55.87c-1.85 0.37-4.01 1.85-5.01 3.44-0.8 1.28 0.47 2.4 1.05 1.76 1.32-1.65 3.17-2.76 4.65-3.29 1-0.43 0.68-2.12-0.69-1.91z" fill="#030508"/>
  <path d="m81.78 52.49c-1.48-0.58-2.69 0.64-2.59 1.91 0.05 1.38 1.16 1.85 1.96 1.75 1.63-0.16 2.05-1.12 2-2.13-0.11-0.69-0.53-1.26-1.37-1.53z" fill="#030508"/>
  <path d="m102 42.85c-1.48-0.58-2.33 0.63-2.22 1.91 0.05 1.06 0.8 1.59 1.7 1.48 1.21-0.16 1.74-1.01 1.69-1.86-0.06-0.69-0.43-1.27-1.17-1.53z" fill="#030508"/>
  <path d="m58.21 12.71 11.44-4.86 11.71 16.05-10.44 5.31-12.71-16.5z" fill="#178197"/>
  <path d="m72.03 30.59 11.38-4.38 2.63 3.21-12.38 4.33-1.63-3.16z" fill="#178197"/>
  <path d="m68.79 38.54 0.74-0.11c-9.21 5.69-19.5 14.01-21.03 23.17-0.85 5.23 1.98 8.44 5.62 8.86 1.32 0.16 2.01-0.32 1.01-0.95-2.21-1.48-3.31-3.12-3.05-6.81 0.64-8.58 9.33-18.05 16.71-24.16z" fill="#178197"/>
  <path d="m106.3 93.1 4.36-9.66 9.97 2.77 16.11 20.5-1.48 2.1c-2.42 1.33-4.23 4.59-5.23 6.6l-1.58-1.59-9.87 9.29-12-7.39-0.28-22.62z" fill="#FEFFFE"/>
  <path d="m115 79.14 3.04 4.66-5.77-0.74-0.9-0.8 3.63-3.12z" fill="#D81921"/>
  <path d="m109.1 83.7-6.18 1.7 2.31 3.42 3.87-5.12z" fill="#D81921"/>
  <path d="m131.2 86.05c3.73 1.17 7.66 1.81 11.2 2.23 1.96-3.26 4.33-4.37 7.36-3.47l0.32 0.69c-3.64 0.64-6.42 3.75-7.42 6.23-4.13-1.22-9.4-2.39-11.46-3.5v-2.18z" fill="#FEFFFE"/>
  <path d="m155 87.22c-5.13-0.11-7.7 6.88-9.02 11.31l-1.42-1.12c1.11-6.4 5.88-11.91 9.71-10.79 1.32 0.43 1.53 0.64 0.73 0.6z" fill="#FEFFFE"/>
  <path d="m161.1 111.7c-3.34-6.6-8.41-10.12-16.63-9.81l0.64-1.38c7.48-1.64 13.62 3.17 16.92 9.52l-0.93 1.67z" fill="#FEFFFE"/>
  <path d="m155 108.2c-3.03-2.59-7.9-4.07-12.42-3.27l0.42-1.59c3.15-1.06 8.87-0.48 12.22 3.1l-0.22 1.76z" fill="#F0CCAE"/>
  <path d="m134.8 113.2c1.95-3.21 5.49-4.54 8.58-4.54 2.68-0.05 5.2 0.42 7.78 1.43 2.47 0.96 4 2.97 3.63 6.29l-1.32-2.49c-0.42-0.63-1.06-0.42-1.01 0.27 0.75 3.87 0.38 9.67-2.71 13.49-0.9 1.01-2.38 0.75-2.59-0.78-0.47-3.47-0.89-8.1-1.1-11.63-0.06-0.74-0.8-0.85-1.07 0.05-1 3.59-1 8.45-0.31 12.54-1.47 1.22-4.45-0.16-5.93-2.4-2.21-3.42-3.58-7.4-3.42-11.43 0.05-1.22-1-1.01-1.37-0.11-0.8 2.25-0.21 8.21 2.26 13.24-2.16-0.16-5.04-3.69-4.77-9.99 0.1-2.1 0.9-2.9 3.35-3.94z" fill="#F0CCAE"/>
  <path d="m115.4 89.66c-2.11-0.32-3.53 1.69-3.21 3.28 0.37 1.8 1.74 2.22 2.64 2.07 1.85-0.32 2.6-1.6 2.44-2.98-0.16-1.11-0.8-2.12-1.87-2.37z" fill="#030508"/>
  <path d="m115.7 90.82c-1.16-0.26-1.96 0.85-1.75 1.8 0.22 1.01 1.07 1.28 1.65 1.17 1.16-0.26 1.63-1.06 1.47-1.96-0.11-0.58-0.58-1.11-1.37-1.01z" fill="#178197"/>
  <path d="m121.4 95.91c-1.96-0.21-2.86 1.54-2.54 2.87 0.42 1.53 1.69 1.96 2.64 1.8 1.67-0.32 2.36-1.43 2.2-2.71-0.16-0.95-0.96-1.85-2.3-1.96z" fill="#030508"/>
  <path d="m121.8 96.92c-1.11-0.16-1.74 0.85-1.53 1.7 0.27 0.96 1.11 1.22 1.7 1.12 1.1-0.27 1.52-1.07 1.36-1.92-0.16-0.58-0.74-1.16-1.53-0.9z" fill="#178197"/>
  <path d="m126.6 103.1c-2.16-0.42-3.27 1.48-3 3.01 0.37 1.75 1.74 2.28 2.8 2.12 1.7-0.37 2.45-1.7 2.24-3.03-0.16-0.95-0.91-1.9-2.04-2.1z" fill="#030508"/>
  <path d="m126.7 104.2c-1.16-0.27-1.91 0.8-1.69 1.75 0.21 1.01 1.11 1.33 1.69 1.17 1.16-0.27 1.58-1.17 1.42-2.07-0.16-0.59-0.74-1.12-1.42-0.85z" fill="#178197"/>
  <path d="m60.22 119c2.26-1.91 6.93-2.23 12.7-0.03 7.83 3.05 11.37 10.94 9.11 18.11l-1.91 2.83c1.22-7.79-1.71-15.34-9.54-16.82-4.47-1.01-6.84-0.8-11.46-0.59l1.1-3.5z" fill="#FEFFFE"/>
  <path d="m36.74 133.6c0.69-1.17 2.4-1.22 3.4-1.12 1.58 0.16 2.69-0.26 2.9 0.75 0.27 1.48-1.79 2.12-4.21 1.85-1.42-0.21-2.47-0.74-2.09-1.48z" fill="#F0CCAE"/>
  <path d="m40.81 157.3c-0.8-1.01-0.42-4.06 0.58-8.39 0.95-3.92 2.53-7.61 4.43-8.3-0.32-0.91-0.48-1.22 0-1.59 1.1-0.69 2.21 0.74 3.42 1.32 4.67 2.34 11.51 5.06 18.08 5.59 1.81 0.11 1.86 1.86-0.2 1.96-1.37 0.05-3.37 1.01-4.79 3.64l-1.66 4.15 0.47 0.64c2.58-1.91 11.79-9.41 14.77-12.72 3.04-3.47 4.04-8.13 1.78-14.53-2.26-4.61-9.46-7.24-18.88-5.91-4.67 1.22-9.39 7.77-17.61 9.25l-0.42 2.39c1.32 0.53 2.32 1.8 1.9 4.29-0.96 5.6-3.27 11.61-3.05 17.46 0.11 0.75 0.58 1.12 1.18 0.75z" fill="#F0CCAE"/>
  <path d="m44.11 158.9c-0.8-1.22 0.21-2.97 1.58-5.97 1.96-4.43 3.22-7.9 4.33-8.7l6.18 2.11-3.49 7.89c-1.66 3.87-3.57 6.98-6.3 6.18-1-0.32-1.9-0.9-2.3-1.51z" fill="#F0CCAE"/>
  <path d="m53.51 158.5c0.21-1.17 1.11-3.08 2.82-6.07 1.53-2.78 2.9-4.98 3.7-5.72l2.16 0.64-5.02 9.51c-1.05 1.48-2.53 2.33-3.66 1.64z" fill="#F0CCAE"/>
  <path d="m74.95 196c3.15-1.22 4.77-2.7 6.73-3.98 3.14 0.85 11.25 2.02 16.43-0.23l-0.8 4.32-5.58 0.26-1.21-2.77c-3.79 2.54-8.81 2.7-15.57 2.4z" fill="#6A3913"/>
  <path d="m103.5 190.3 0.85 4.71 6.29 0.05 0.53-3.98c5.07 1.12 10.94 4.17 17.13 1.54l0.95-1.91c-2.98-0.21-5.29-2.11-7.76-3.65-4.36 2.2-8.24 1.78-15.63 2.36-1.42 0-2.53-0.21-2.36 0.88z" fill="#6A3913"/>
  <path d="m132.7 196.7 17.31-66.09-1.81 0.11-16.6 65.4 1.1 0.58z" fill="#604C25"/>
  <path d="m123.4 183.8 16.55-27.41 0.47 0.21-7.83 32.03c-1.91 2.89-5.79 0.31-9.19-3.67v-1.16z" fill="#FEFFFE"/>
  <path d="m106.5 118.4 12.65 7.24 9.66-11.34 2.21 1.53-0.9 7.66c-2.11 3.05-2.11 8.57-1.95 13.94 2.01 1.48 6.27 2.12 7.98 2.01l1.66-8.42 1.96 1.38 1.32-0.27c-0.11 4.98-0.75 13.66-4.04 21.5-3.78 8.48-9.65 22.38-14.27 26.36-5.07 4.92-9.69 4.92-16.74 6.3l-0.21-1.06c7.1-11.39 16.96-28 17.01-50.26-0.1-1.06-0.74-1.27-0.79-0.16-0.85 12.64-6.72 22.26-11.95 31.62l-8.79 18.17c-3.49 4.32-10.33 5.33-17.58 3.9 6.29-12.27 6.08-23.45 5.61-36.9 7.48-3.82 16.58-15.05 16.79-24.41l0.37-8.79z" fill="#178197"/>
  <path d="m131.5 128.1 3.25 2.58-1.1 5.96-2.63-0.58 0.48-7.96z" fill="#604C25"/>
</svg>