<?xml version="1.0" encoding="UTF-8"?> <svg xmlns="http://www.w3.org/2000/svg" width="32" height="32" viewBox="0 0 32 32" fill="none"><rect width="32" height="32" rx="16" fill="#4681FF"></rect><path d="M14.0486 19.3128L8.76772 16.7416L7.46387 20.7094L12.7448 23.2806L14.0486 19.3128Z" fill="#533BEB"></path><path d="M18.3886 7H13.1134C12.5306 7 11.936 7.45789 11.7852 8.02273L7.52526 23.9773C7.37445 24.5421 7.72455 25 8.30728 25H12.5275C13.1102 25 13.7049 24.5421 13.8557 23.9773L14.3472 22.1364C14.498 21.5715 15.0928 21.1203 15.6898 21.0493C17.4271 20.8425 19.186 20.1439 20.6929 19.0467C22.5104 17.7233 23.8122 15.9284 24.312 14.0568C24.8117 12.1852 24.4684 10.3903 23.3575 9.06689C22.2467 7.74349 20.4593 7.00001 18.3886 7Z" fill="white"></path><path d="M7.5166 20.5406L14.9978 16.898C15.3458 16.7286 15.7061 16.8292 15.8025 17.1227L16.1046 18.042C16.2391 18.451 16.8482 18.451 17.2011 18.042L22.9674 11.3572C23.3203 10.9482 23.1523 10.4368 22.665 10.4368H14.702C14.2147 10.4368 13.7736 10.9482 13.908 11.3572L14.1495 12.092C14.2459 12.3855 14.042 12.7608 13.6939 12.9303L8.92915 15.2502L7.5166 20.5406Z" fill="url(#paint0_linear_377_26359)"></path><defs><linearGradient id="paint0_linear_377_26359" x1="23.2746" y1="10.4376" x2="10.6241" y2="14.6941" gradientUnits="userSpaceOnUse"><stop stop-color="#2B99FF"></stop><stop offset="1" stop-color="#725BFF"></stop></linearGradient></defs></svg> 