<svg xmlns="http://www.w3.org/2000/svg" viewBox="0 0 132 72">
<!-- SVG created with Arrow, by QuiverAI (https://quiver.ai) -->
  <style type="text/css">.cls-0 {fill:#BDC3C7;}
.cls-1 {fill:#FF8FA2;}
.cls-2 {fill:#FF9E9A;}
.cls-3 {fill:#FFCC99;}
.cls-4 {fill:#80CFFF;}
.cls-5 {fill:#66CCFF;}
.cls-6 {fill:#A58CFF;}
.cls-7 {fill:#99B6CA;}
.cls-8 {fill:#77C1FF;}
.cls-9 {fill:#B48FFF;}
.cls-10 {fill:#FFD499;}
.cls-11 {fill:#393939;}
.cls-12 {fill:#FFFFFF;}</style>
  <path class="cls-0" d="m52 0c-2.9 0-5.8 2.1-5.8 5.2 0 2.8 2.5 5.1 5.8 5.1 2.9 0 5.8-2.1 5.8-5.1 0.1-2.8-2.5-5.2-5.8-5.2z"/>
  <path class="cls-0" d="m20.5 2.9h-20.5v8.4h18.4c4.9 0 8.1 2.3 8.1 8 0 5-3.1 8-8.1 8h-8.6v-16h-9.8v42.6h9.8v-17.8h7.9l9.8 17.8h12.1l-11.2-19.5c5-2.1 9.4-6.7 9.4-14.9 0-10.4-7.4-16.6-17.3-16.6z"/>
  <path class="cls-1" d="m0 11.1v15.3h9.8v-15.3h-9.8z"/>
  <path class="cls-2" d="m0 21.3v5.1h9.8v-5.1h-9.8z"/>
  <path class="cls-3" d="m28.3 34.4c3.4-1.4 6.5-3.9 8.2-8h-12.4c-1.5 0.6-2.9 1-4.6 1h-9.7v-1h-9.8v13.9h9.8v-4.2h7.9l2.6 4.2h11.1l-3.1-5.9z"/>
  <path class="cls-4" d="m0 41.2v6.6h9.8v-6.6h-9.8z"/>
  <path class="cls-5" d="m0 42.1v5.7h9.8v-5.7h-9.8z"/>
  <path class="cls-6" d="m0 48.6v5.3h9.8v-5.3h-9.8z"/>
  <path class="cls-1" d="m21.4 11.1c3.5 0.7 5.1 3.3 5.1 8.2 0 1.6-0.3 3-0.9 7.1h11c0.8-1.9 1.1-4.2 1.1-6.9 0.1-3.2-0.7-6.1-2.1-8.4h-14.2z"/>
  <path class="cls-2" d="m26 22.5c-0.2 1.2-0.7 2.4-1.4 3.9h12.1c0.4-1.2 0.7-2.5 0.9-3.9h-11.6z"/>
  <path class="cls-7" d="m17.4 8.5 1.1 2.8h3.2c-1.3-0.5-4.3-2.8-4.3-2.8z"/>
  <path class="cls-8" d="m20.8 40.3 3.8 7.5h11.5l-4.5-8.1-10.8 0.6z"/>
  <path class="cls-5" d="m21.5 41.6 3.1 6.2h11.5l-3.6-6.7-11 0.5z"/>
  <path class="cls-9" d="m24.6 48.6 3 5.3h11.9l-3-5.3h-11.9z"/>
  <path class="cls-10" d="m20.3 40.3h11.1l-0.8-1.5h-11.2l0.9 1.5z"/>
  <path class="cls-6" d="m24.6 48.6 0.9 1.7h12l-1-1.7h-11.9z"/>
  <path class="cls-1" d="m46.8 15.5v10.9h10.7v-10.9h-10.7z"/>
  <path class="cls-2" d="m46.8 21.1v5.3h10.7v-5.3h-10.7z"/>
  <path class="cls-3" d="m46.8 26.4v13.4h10.7v-13.4h-10.7z"/>
  <path class="cls-10" d="m46.8 37.2v2.7h10.7v-2.7h-10.7z"/>
  <path class="cls-4" d="m46.8 40.6v7.2h10.7v-7.2h-10.7z"/>
  <path class="cls-5" d="m46.8 42.1v5.7h10.7v-5.7h-10.7z"/>
  <path class="cls-9" d="m46.8 48.6v5.3h10.7v-5.3h-10.7z"/>
  <path class="cls-6" d="m46.8 48.6v1.7h10.7v-1.7h-10.7z"/>
  <path class="cls-1" d="m82.9 15c-10.4 0-18.6 6.9-18.6 19.7 0 11.9 7.1 19.7 18.6 19.7 11.3 0 19.4-7.8 19.4-19.7 0-12.2-8.1-19.7-19.4-19.7zm0.3 31.8c-4.5 0-8.2-3.6-8.2-11.8 0-7.5 3.9-11.5 8.2-11.5 4.7 0 8.4 3.4 8.4 11.5 0 7.4-3.7 11.8-8.4 11.8z"/>
  <path class="cls-2" d="m66.3 26.4h10.7c1.5-1.8 3.7-2.8 6.1-2.8s4.4 0.8 6 2.8h11.7c-2.6-7.1-9-11.4-17.8-11.4-8.2 0-14.3 4.1-16.7 11.4z"/>
  <path class="cls-3" d="m64.6 39.8h10.8c-0.1-1.4-0.4-2.8-0.4-4.8 0-4.2 1.1-7.1 2.6-8.6h-11.5c-1 2.4-1.7 5.2-1.7 8.3 0 1.8 0 3.5 0.2 5.1z"/>
  <path class="cls-3" d="m89.5 26.4c1.4 1.7 2.1 4.6 2.1 8.6 0 1.9-0.1 3.4-0.5 4.8h10.9c0.2-1.6 0.3-3.3 0.3-5.1 0-3.1-0.5-5.9-1.4-8.3h-11.4z"/>
  <path class="cls-10" d="m64.6 39.4c0 0.1 0 0.3 0.2 0.5h10.6c0-0.2 0-0.4-0.1-0.5h-10.7z"/>
  <path class="cls-10" d="m91.1 39.4c0 0.3 0 0.5-0.1 0.5h11c0-0.2 0.1-0.4 0.1-0.5h-11z"/>
  <path class="cls-4" d="m64.9 40.6c1.6 8 7.5 13.8 18 13.8 9.4 0 16.4-5.8 18.4-13.8h-10.1c-1.3 4.3-4.4 6.2-7.9 6.2-3.3 0-6.4-1.8-7.7-6.2h-10.7z"/>
  <path class="cls-5" d="m65.8 42.1c2.3 7 8.2 12.3 17.1 12.3 8.6 0 15-4.9 17.6-12.3h-9.7c-1.5 3.3-4.4 4.7-7.4 4.7s-5.9-1.4-7.4-4.7h-10.2z"/>
  <path class="cls-8" d="m68.7 47.8h29.3c0.1-0.1 0.4-0.3 0.5-0.5l-30.2 0.1 0.4 0.4z"/>
  <path class="cls-9" d="m69.8 48.6c3 3.6 7.3 5.8 13.1 5.8 5.7 0 10.3-2.2 13.5-5.8h-26.6z"/>
  <path class="cls-6" d="m72.4 50.3c2.6 2.3 6.1 3.6 10.5 3.6 4.2 0 7.7-1.3 10.6-3.6h-21.1z"/>
  <path class="cls-0" d="m46.8 12.6h10.7v-0.8h-10.7v0.8z"/>
  <path class="cls-11" d="m128.9 35.6c-3.4 0-6.7 1.7-8.2 5.1-1.3-1-2.4-2.1-4.2-2.1-2.8 0-5 1.8-5.6 5.6l-0.3 0.2c-1.2-1.2-2.8-2.2-5.1-2.2-3.6 0-4.9 3.2-5.9 6.4l-3.8 1.3-5.3 16.1 4 2c4 1 6.4 0.2 9.1-2.5l0.5-0.7c3.7 1.7 7.7 1.3 11.2-2.2 5 1.8 7.5-2 9.6-8 1.1-3.5 3-6.4 5.2-9.2l1.9-1.2v-7.6l-3.1-1z"/>
  <path class="cls-12" d="m124.2 40.6-2.9 4.3h-0.3l-0.5-3.5-7.5 2 0.1 0.6 3.5 12.9 4.1-0.8 1.8-6.2 9.1-11.3v-0.5l-7.4 2.5z"/>
  <path class="cls-12" d="m110.1 44.4-6.1 1.5-11.4 20.7 5.2-1 1.7-1 0.5-2 4.6-1.6 0.2 1.8 7.2-2.2-1.9-16.2zm-7.2 12 1.1-3 1.5-0.3-0.4 2.8-2.2 0.5z"/>
  <path class="cls-12" d="m80.5 53.1-4.5 18 6.4-1.1 1.8-5.4c5.9-0.2 11.9-5.4 11.8-12.4 0-2.5-1.9-3.2-6.5-1.8l-9 2.7zm4.8 6.5 1.1-3.7 2-0.7 0.6 1.2-1.7 2.6-2 0.6z"/>
  <path class="cls-12" d="m81.9 53.9-1.5 15-3.3 0.5 4.8-15.5z"/>
  <path class="cls-12" d="m82.1 53.6 11.7-2 0.4 0.8-1.6 6.6-3.5 2.8 0.7-6.4-1.6-0.8-3.6 0.8-1.1 7.1-1.4-8.9z"/>
  <path class="cls-12" d="m101.9 51.2 2.1 5.4 1.8-0.5 0.3-3.2 1.4-0.3 1.5 7-10.4 2 3.3-10.4z"/>
  <path class="cls-12" d="m113.1 43.9 5.5-0.8 0.9 1.9 0.9-0.1-0.8 11.7-1 0.3-3-12-2.5 0.5v-1.5z"/>
</svg>