<svg xmlns="http://www.w3.org/2000/svg" viewBox="88 95.6 170 164">
<!-- SVG created with Arrow, by QuiverAI (https://quiver.ai) -->
  <path d="m167 98c-6 0.4-9.7 2.1-13 4.7-3.3 2.2-10 7.8-13 13.3-3 6.5-4.7 18.3 13 29.9 11.9 7.9 20 11.2 36 17.6 11 3 46.8 17.6 54.5 42.1h0.2c3.3-7.8 4.3-16.2 4.6-24.8-0.6-25.3-12.3-51.9-36.3-67.9-11-7-25-14.9-40-14.9h-6z" fill="#65E37A"/>
  <path d="m122 213.5c-9-4.9-15.7-11.2-21.2-17.1-3.5-3.7-8.8-7.4-8.8 0 0 4.3 1.3 9.1 4.2 16.7 10 18.5 29 45 76.4 45.8-1.1-7.6-7.7-26.8-29-35.5-4.7-1.9-7.6-3.1-11.3-4.4l-10.3-5.5z" fill="#65E37A"/>
  <path d="m187 183.8c-11-2.7-25-5.2-54-17.8-10-3.9-23.3-10.3-31.6-32.2-3.4 4.7-7.7 11.9-9.9 19.7-2.4 7.2-0.9 17.6 7.5 24 5 3.7 14 8.4 18 10.1 14 5.9 19.9 7.5 25 9.4 12.2 4.7 25 11.1 33 16.8s22 15.9 25 29.2c0.8 3.5 0.8 7.2 0 9.8 9-3.4 17.4-7.2 23.4-12.4 2.7-2.1 3.6-2.9-1-5.4l2.6-2.3c0-3.3 2-16-7-29.7-4-6.7-9.7-13-31-19.2z" fill="#65E37A"/>
  <path d="m133 165.7c-8.9-5-12.3-16.6-17-30-3-7.4-4.9-11.6-10.4-7.4-1.3 0.9-3 2.8-4.2 4.6 4.1 9.1 12.6 24.1 31.6 32.8zm58-2c17.5 6.4 36 26.3 36 51.5 0 4.8-0.2 13.7-3.6 21.7 8.5-6.8 16.4-14.9 20.9-30.7-6-20.2-32.3-34.2-53.3-42.5zm-95 49.9c3 3 10 5 18 5s13.9-0.4 19-1c-7-2.1-14.2-5.6-23-13.1-6.8-5.5-10-11.1-13.7-12.9-7.3-2.5-5.3 10.4-0.3 21v1z" fill="#2F5B4D"/>
  <path d="m248.7 172-0.2-1c-1-13.6-5.5-35.6-27.5-52.1v26l21.7 32.1 6-5z" fill="#65E37A"/>
</svg>
